<?xml version="1.0" standalone="no"?>
<!DOCTYPE svg PUBLIC "-//W3C//DTD SVG 20010904//EN"
 "http://www.w3.org/TR/2001/REC-SVG-20010904/DTD/svg10.dtd">
<svg version="1.0" xmlns="http://www.w3.org/2000/svg"
 width="178" height="40" viewBox="0 0 400.000000 257.000000"
 preserveAspectRatio="xMidYMid meet">
<metadata>
Created by potrace 1.16, written by Peter Selinger 2001-2019
</metadata>
<g transform="translate(0.000000,257.000000) scale(0.100000,-0.100000)"
fill="#000000" stroke="none">
<path d="M2535 2477 c-10 -28 -28 -77 -41 -108 -13 -32 -34 -98 -48 -149 -14
-51 -29 -97 -35 -103 -7 -7 -26 6 -59 41 -26 29 -56 52 -66 52 -20 0 -78 -43
-156 -116 -151 -140 -239 -184 -334 -164 -97 20 -209 21 -257 2 -82 -32 -234
-121 -359 -211 -140 -100 -140 -100 -208 -30 -49 50 -46 30 5 -29 32 -37 52
-52 70 -52 15 0 56 25 108 65 45 36 87 65 92 65 4 0 24 13 43 29 54 44 203
126 265 145 31 10 72 16 93 13 20 -2 76 -10 123 -17 76 -11 93 -10 137 4 55
19 184 115 273 205 31 31 67 62 82 70 24 13 28 11 79 -38 29 -28 58 -51 64
-51 19 0 31 22 54 100 11 41 39 130 62 198 22 68 38 125 36 127 -2 3 -12 -19
-23 -48z"/>
<path d="M377 1179 c-49 -26 -77 -72 -77 -127 0 -81 44 -132 139 -158 137 -37
161 -53 161 -107 0 -28 -34 -62 -72 -71 -45 -10 -113 12 -152 51 -37 38 -44
37 -75 -6 l-21 -29 22 -27 c56 -72 216 -99 308 -52 65 33 85 66 85 142 0 49
-5 70 -21 92 -29 40 -87 69 -161 83 -81 16 -113 40 -113 85 0 29 6 37 32 51
41 21 115 14 156 -14 39 -29 47 -28 72 8 19 26 20 33 8 47 -44 54 -215 72
-291 32z"/>
<path d="M925 1186 c-81 -35 -129 -105 -144 -208 -22 -156 29 -276 136 -325
46 -21 66 -25 132 -22 64 3 85 9 119 32 39 25 82 89 82 120 0 14 -40 37 -64
37 -7 0 -20 -16 -29 -35 -21 -43 -68 -68 -130 -69 -51 0 -85 19 -121 68 -32
43 -36 189 -6 250 23 48 82 86 133 86 41 0 91 -24 115 -55 23 -29 48 -29 86 0
19 14 18 15 -7 54 -38 57 -95 81 -193 81 -43 -1 -92 -7 -109 -14z"/>
<path d="M1453 1175 c-40 -18 -60 -36 -83 -72 -42 -66 -53 -114 -48 -213 9
-169 95 -259 251 -260 99 0 168 34 203 102 21 40 17 63 -11 76 -39 18 -49 15
-65 -20 -33 -70 -127 -95 -201 -52 -69 40 -100 167 -67 276 32 109 173 143
253 61 l35 -37 35 17 c41 20 42 24 12 68 -52 80 -204 106 -314 54z"/>
<path d="M2070 921 l0 -281 50 0 50 0 0 105 0 105 87 0 c109 0 159 21 192 81
30 53 27 149 -7 196 -39 54 -81 67 -234 71 l-138 4 0 -281z m277 165 c32 -38
32 -98 -2 -131 -21 -22 -33 -25 -100 -25 l-75 0 0 96 0 97 77 -5 c68 -5 79 -8
100 -32z"/>
<path d="M2580 920 l0 -280 155 0 c167 0 188 5 235 54 19 21 25 40 28 90 5 77
-14 120 -64 143 l-34 17 25 26 c51 53 51 144 1 187 -39 33 -89 43 -223 43
l-123 0 0 -280z m264 179 c19 -15 26 -30 26 -54 0 -54 -36 -75 -126 -75 l-74
0 0 75 0 75 74 0 c59 0 78 -4 100 -21z m33 -231 c33 -36 34 -97 3 -128 -17
-17 -33 -20 -115 -20 l-95 0 0 85 0 85 93 0 c84 0 96 -2 114 -22z"/>
<path d="M3230 1184 c-107 -46 -161 -174 -139 -332 11 -78 37 -131 84 -170 46
-37 96 -52 176 -52 144 1 233 90 246 248 12 142 -37 254 -130 297 -62 30 -180
34 -237 9z m200 -92 c45 -32 65 -88 65 -177 0 -134 -50 -197 -154 -197 -103 0
-151 63 -151 198 1 106 23 157 82 185 51 23 119 19 158 -9z"/>
<path d="M1030 358 c-76 -52 -98 -129 -62 -211 24 -54 65 -83 130 -93 71 -11
166 36 136 66 -6 6 -26 1 -52 -11 -134 -67 -255 110 -141 205 36 31 111 36
147 10 25 -17 52 -13 52 9 0 47 -151 65 -210 25z"/>
<path d="M1352 360 c-49 -30 -72 -75 -72 -141 0 -70 27 -115 90 -147 84 -44
186 -13 228 68 42 81 20 165 -58 218 -44 30 -140 31 -188 2z m177 -46 c108
-91 -1 -265 -132 -210 -42 17 -77 67 -77 109 0 42 28 95 59 112 44 24 115 19
150 -11z"/>
<path d="M1690 221 l0 -161 110 0 c104 0 112 1 135 25 34 33 34 87 1 120 -20
20 -22 26 -10 36 8 6 14 30 14 54 0 67 -21 79 -146 83 l-104 4 0 -161z m194
103 c44 -44 1 -84 -91 -84 l-63 0 0 50 0 50 69 0 c50 0 74 -4 85 -16z m16
-144 c50 -50 1 -90 -111 -90 l-59 0 0 55 0 55 75 0 c62 0 79 -4 95 -20z"/>
<path d="M2030 220 c0 -153 1 -160 20 -160 17 0 20 7 20 50 l0 50 49 0 c48 0
51 -2 86 -50 27 -36 43 -50 61 -50 l25 0 -34 50 -34 51 28 29 c24 23 29 37 29
75 0 90 -36 115 -165 115 l-85 0 0 -160z m187 98 c24 -23 30 -57 13 -88 -12
-22 -67 -40 -122 -40 l-38 0 0 75 0 75 62 0 c50 0 66 -4 85 -22z"/>
<path d="M2402 360 c-49 -30 -72 -75 -72 -141 0 -70 27 -115 90 -147 84 -44
186 -13 228 68 42 81 20 165 -58 218 -44 30 -140 31 -188 2z m177 -46 c108
-91 -1 -265 -132 -210 -42 17 -77 67 -77 109 0 42 28 95 59 112 44 24 115 19
150 -11z"/>
<path d="M2739 351 c-35 -35 -39 -81 -9 -111 10 -10 51 -29 90 -41 93 -28 116
-70 54 -98 -36 -16 -75 -14 -117 8 -36 19 -38 19 -47 0 -9 -15 -5 -21 19 -33
69 -36 175 -27 206 17 22 32 19 80 -7 104 -13 12 -50 29 -83 38 -73 20 -102
48 -82 78 22 33 61 41 115 24 44 -15 61 -11 62 14 0 14 -56 29 -111 29 -54 0
-64 -3 -90 -29z"/>
</g>
</svg>
